<svg xmlns="http://www.w3.org/2000/svg" viewBox="0 0 128 128" role="img" aria-label="Svelte">
  <rect width="128" height="128" rx="28" fill="#15102a"/>
  <path fill="#FF3E00" d="M119.841 20.354C105.556-0.091 81.345-6.151 61.448 6.845L21.124 29.678A41.099 41.099 0 0 0 2.568 57.2a43.283 43.283 0 0 0 4.268 27.788 41.213 41.213 0 0 0-6.148 15.36 43.798 43.798 0 0 0 7.482 33.122c14.287 20.447 42.499 26.504 62.894 13.508l35.824-22.832A41.091 41.091 0 0 0 125.432 27.53a43.3 43.3 0 0 0-4.265-27.79 41.205 41.205 0 0 0 6.145-15.359 43.787 43.787 0 0 0-7.471-33.027"/>
  <path fill="#FFF" d="M53.445 135.42c-11.551 3.004-23.749-1.518-30.552-11.324a26.343 26.343 0 0 1-4.502-19.925 24.989 24.989 0 0 1 .857-3.347l.675-2.058 1.836 1.349a46.224 46.224 0 0 0 14.018 7.004l1.332.404-.123 1.33a8.034 8.034 0 0 0 1.445 5.328 8.572 8.572 0 0 0 9.199 3.414 7.893 7.893 0 0 0 2.202-.968l35.835-22.836a7.461 7.461 0 0 0 3.367-4.989 7.962 7.962 0 0 0-1.357-6.006 8.578 8.578 0 0 0-9.202-3.416 7.89 7.89 0 0 0-2.198.967L63.675 79.717a26.149 26.149 0 0 1-7.277 3.196c-11.551 3.004-23.749-1.518-30.551-11.325a26.34 26.34 0 0 1-4.502-19.925 24.714 24.714 0 0 1 11.17-16.557l35.832-22.839a26.109 26.109 0 0 1 7.282-3.199c11.551-3.004 23.749 1.518 30.551 11.325a26.343 26.343 0 0 1 4.502 19.925 25.28 25.28 0 0 1-.857 3.346l-.675 2.058-1.835-1.347a46.187 46.187 0 0 0-14.019-7.007l-1.332-.405.123-1.329a8.05 8.05 0 0 0-1.445-5.328 8.572 8.572 0 0 0-9.199-3.414 7.893 7.893 0 0 0-2.202.968L35.835 48.337a7.449 7.449 0 0 0-3.365 4.988 7.95 7.95 0 0 0 1.355 6.006 8.578 8.578 0 0 0 9.202 3.416 7.921 7.921 0 0 0 2.201-.968l13.673-8.714a26.074 26.074 0 0 1 7.276-3.199c11.551-3.003 23.749 1.518 30.551 11.325a26.34 26.34 0 0 1 4.502 19.924 24.727 24.727 0 0 1-11.17 16.56l-35.832 22.837a26.109 26.109 0 0 1-7.282 3.199"/>
</svg>
